<?xml version="1.0" encoding="UTF-8"?>
<svg width="408px" height="83px" viewBox="0 0 408 83" version="1.1" xmlns="http://www.w3.org/2000/svg" xmlns:xlink="http://www.w3.org/1999/xlink">
    <!-- Generator: Sketch 52.6 (67491) - http://www.bohemiancoding.com/sketch -->
    <title>KNOPS-LOGO</title>
    <desc>Created with Sketch.</desc>
    <defs>
        <polygon id="path-1" points="0.0177 -0.00011207076 63.0176923 -0.00011207076 63.0176923 81 0.0177 81"></polygon>
        <polygon id="path-3" points="0.7471 0.3873 65.0181 0.3873 65.0181 82 0.7471 82"></polygon>
        <polygon id="path-5" points="0 0.0002 12.9056 0.0002 12.9056 20.0762 0 20.0762"></polygon>
        <polygon id="path-7" points="0.0744 0.096 66.255 0.096 66.255 80.8767202 0.0744 80.8767202"></polygon>
    </defs>
    <g id="KNOPS-LOGO" stroke="none" stroke-width="1" fill="none" fill-rule="evenodd">
        <path d="M176.5918,41.6715 C176.6128,56.6645 188.4178,68.3955 203.4338,68.3475 C218.6908,68.2985 230.4678,56.4625 230.4328,41.2145 C230.3988,26.4625 218.3578,14.5315 203.4628,14.4895 C188.2728,14.4465 176.5708,26.2845 176.5918,41.6715 M203.2998,81.9035 C180.5878,81.9145 162.9438,64.0265 162.9478,40.9935 C162.9518,18.8435 180.9108,0.9525 203.1898,0.9035 C226.0178,0.8545 244.0818,18.7245 244.0938,41.3695 C244.1068,64.1395 226.2388,81.8935 203.2998,81.9035" id="Fill-1" fill="#000000"></path>
        <g id="Group-5" transform="translate(261.000000, 0.903900)">
            <mask id="mask-2" fill="white">
                <use xlink:href="#path-1"></use>
            </mask>
            <g id="Clip-4"></g>
            <path d="M8.6177,8.8613 C11.8137,12.7993 15.3137,13.7313 20.5007,13.7313 L35.2027,13.7313 C37.9967,13.8763 41.0707,14.6513 43.4187,16.1073 C48.5837,19.3113 50.5097,25.4913 48.7717,31.0433 C46.9697,36.8043 42.1067,40.5573 35.5277,40.6323 L0.0177,40.6323 L0.0177,81.0003 L13.5807,81.0003 L13.5807,54.2643 C13.5807,54.2643 27.5297,54.5713 36.6087,54.2643 C51.9477,53.7473 63.1897,41.8013 63.0157,26.7023 C62.8447,11.7943 50.9777,0.1573 35.7307,0.0363 C26.7857,-0.0357 4.1607,0.0213 0.0177,0.0213 L8.6177,8.8613" id="Fill-3" fill="#000000" mask="url(#mask-2)"></path>
        </g>
        <g id="Group-8" transform="translate(79.000000, -0.096100)">
            <mask id="mask-4" fill="white">
                <use xlink:href="#path-3"></use>
            </mask>
            <g id="Clip-7"></g>
            <path d="M51.7661,50.9893 L51.7661,1.0003 L65.0181,1.0003 L65.0181,80.9983 C65.0181,81.8833 63.9531,82.3323 63.3191,81.7143 L3.7981,23.5483 C2.1601,22.0403 0.9391,19.2703 0.7471,16.9883 L0.7471,0.3873 L51.7661,50.9893 Z" id="Fill-6" fill="#000000" mask="url(#mask-4)"></path>
        </g>
        <path d="M22.3076,41.0475 L63.6986,81.9035 L45.1036,81.9035 C44.4086,81.8935 43.5826,81.3465 43.0536,80.8135 L4.3626,41.7125 C3.9736,41.3195 3.9766,40.6865 4.3696,40.2985 L40.6906,4.3745 C43.1076,1.8025 44.6006,0.9035 49.1806,0.9035 L63.0366,0.9035 L22.3076,41.0475 Z" id="Fill-9" fill="#000000"></path>
        <g id="Group-13" transform="translate(0.000000, 0.903900)">
            <mask id="mask-6" fill="white">
                <use xlink:href="#path-5"></use>
            </mask>
            <g id="Clip-12"></g>
            <path d="M6.2656,20.0762 L-0.0004,20.0762 L-0.0004,0.0002 L12.9056,0.0002 L12.9056,13.4352 C12.9056,17.1022 9.9326,20.0762 6.2656,20.0762" id="Fill-11" fill="#000000" mask="url(#mask-6)"></path>
        </g>
        <g id="Group-16" transform="translate(342.000000, -0.096100)">
            <mask id="mask-8" fill="white">
                <use xlink:href="#path-7"></use>
            </mask>
            <g id="Clip-15"></g>
            <path d="M66.2554,57.2998 C66.2034,47.8078 61.7134,40.4408 53.5934,36.5448 C47.9574,33.8408 42.4534,33.7628 41.8444,33.7628 L24.5274,33.7628 C24.3104,33.7568 21.1824,33.6438 18.3204,32.1738 C15.1084,30.5228 13.6634,27.9108 13.6454,23.7148 C13.6634,19.5188 15.1084,16.9068 18.3204,15.2558 C21.2734,13.7388 24.4844,13.6668 24.4844,13.6668 L24.4844,0.0958 C23.8764,0.0958 18.3724,0.1738 12.7364,2.8778 C4.6164,6.7738 0.1264,14.1418 0.0744,23.6328 L0.0744,23.7968 C0.1264,33.2878 4.6164,40.6558 12.7364,44.5518 C18.3724,47.2558 23.8764,47.3338 24.4844,47.3338 L41.8024,47.3338 C42.0204,47.3398 45.1484,47.4518 48.0094,48.9218 C51.2224,50.5728 52.6654,53.1858 52.6854,57.3808 C52.6654,61.5768 51.2224,64.1898 48.0094,65.8398 C45.0574,67.3568 41.8444,67.4288 41.8444,67.4288 L41.8444,78.8748 C41.8444,80.0568 42.8614,80.9888 44.0364,80.8658 C46.2774,80.6318 49.9074,79.9868 53.5934,78.2178 C61.7134,74.3218 66.2034,66.9548 66.2554,57.4628 L66.2554,57.2998 Z" id="Fill-14" fill="#000000" mask="url(#mask-8)"></path>
        </g>
    </g>
</svg>