<svg xmlns="http://www.w3.org/2000/svg" viewBox="0 0 1095.29 272.64"><defs><style>.cls-1{fill:#fff;}.cls-2{fill:#47b8dc;}.cls-3{fill:#4ca2be;}.cls-4{fill:#060505;}.cls-5{fill:#ee8430;}.cls-6{fill:#f28926;}.cls-7{fill:#f68a24;}.cls-8{fill:#f0c797;}.cls-9{fill:#f68b26;}.cls-10{fill:#fbfdfe;}.cls-11{fill:#fefefe;}.cls-12{fill:#fefefd;}.cls-13{fill:#b5d2df;}.cls-14{fill:#0c0907;}</style></defs><title>Asset 3</title><g id="Layer_2" data-name="Layer 2"><g id="Layer_1-2" data-name="Layer 1"><path class="cls-1" d="M988.68,213.78a42.55,42.55,0,0,0,1.41,10.2A39.19,39.19,0,0,0,998.62,239c1,1.08,1.61,1.13,2.64.44a2,2,0,0,0,.6-2.71,16.85,16.85,0,0,1-1.15-3.31,3.07,3.07,0,0,1,2-3.89,9.31,9.31,0,0,1,3.78-.58c1.62,0,3.24.49,4.94.17A65.1,65.1,0,0,0,988.68,213.78Z"/><path class="cls-2" d="M1041.16,15.68c2.76-3.23,5.53-6.45,8.29-9.69,1.29-1.52,2.58-3.05,3.83-4.6A9.5,9.5,0,0,1,1054.6,0h1.59a7.6,7.6,0,0,0,.81.59,73.66,73.66,0,0,1,18.91,14.63,66.85,66.85,0,0,1,10.36,14.53,80.38,80.38,0,0,1,8.6,30.75,25,25,0,0,0,.39,4.48V75.45a3.06,3.06,0,0,0-.19,1.64,87.27,87.27,0,0,1-1,9.94,8,8,0,0,0-4.6,5.8,35.76,35.76,0,0,1-1.32,5.59c-.33.19-.35.55-.45.87-2.3,7.16-4.78,14.25-7.74,21.17-5.22,12.17-11.27,23.87-20.2,33.82-5.52,6.16-11.77,11.32-20,13.4l-1.71-.55c-6.48-2.08-12.16-5.76-18-9.13-1.42-.82-2.68-2-4.43-2.09-1.31-.07-2.64,0-4,0a37.62,37.62,0,0,1-3.92-6.22,110.92,110.92,0,0,0-6.28-10c-2.19-3.23-5.13-5.85-7.62-8.85-1.38-1.65-3.14-2.91-4.61-4.48a31.52,31.52,0,0,0,6.08-3.4,28.58,28.58,0,0,0,8.49-9.76c1.27-2.34,1.92-4.93,3-7.35,1.25-2.79,2.7-5.48,4-8.22,2-4.07,4-8.16,5.89-12.28,2.4-5.18,4.68-10.41,6.9-15.67q3.67-8.74,7.3-17.53c2.21-5.38,4.4-10.76,6.29-16.26a34.4,34.4,0,0,0,2.18-8.9,30.69,30.69,0,0,1,.87-6.16A19,19,0,0,0,1041.16,15.68Z"/><path class="cls-3" d="M1094.12,87a106.12,106.12,0,0,1-2,12.4A189.76,189.76,0,0,1,1078,141a125.15,125.15,0,0,1-14.34,24.15,51.15,51.15,0,0,1-5.61,6.07c-3,2.77-6.34,3.46-10.27,2.75a69.9,69.9,0,0,1-18-6.36,3.66,3.66,0,0,0-1.54-.46c.59.76,1.18,1.52,1.75,2.28a101,101,0,0,1,15.5,31.12,152.94,152.94,0,0,1,5.48,25.32c.89,6.56,1.37,13.15,1.64,19.77.28,6.92,0,13.83-.34,20.74-.09,1.51-.3,3-.42,4.52-.06.8-.67,1.22-1.12,1.75h-1.82a11.34,11.34,0,0,1-2.64-4.36,99,99,0,0,0-15.8-24.88c-1.33-1.59-2.7-3.15-4.06-4.72a34.74,34.74,0,0,0,1.56-4.43c-.1.61.28,1,.66,1.36a119.58,119.58,0,0,1,16.87,22c1,1.74,2,3.51,3.11,5.48.09-1.85.23-3.45.26-5.06.09-6,0-11.94-.34-17.91a179.94,179.94,0,0,0-3-24,122.51,122.51,0,0,0-9.86-30.18,79.8,79.8,0,0,0-22.87-28.51l-1.09-1.53c1.32,0,2.65,0,4,0,1.75.09,3,1.27,4.43,2.09,5.83,3.37,11.51,7.05,18,9.13l1.71.55a42.35,42.35,0,0,0,9.1,2.57c3.13.67,5.39-.48,7.49-2.61a75.14,75.14,0,0,0,10.55-14.16,177.84,177.84,0,0,0,20.19-49.42,22.12,22.12,0,0,0,1.11-5.64,35.76,35.76,0,0,0,1.32-5.59A8,8,0,0,1,1094.12,87Z"/><path class="cls-4" d="M879.7,164.73c-2.5,1.69-5,3.36-7.49,5.07a408,408,0,0,0-40.28,32c-1.71,1.53-2.65,2-4.58-.21-.1-.11-.12-.39-.39-.26v-2.05c.46,0,.51-.47.7-.74l27.89-40.33c.23-.34.5-.65.75-1,8.78.66,17.52.85,26.08-1.69A13.59,13.59,0,0,0,879.7,164.73Z"/><path class="cls-1" d="M1095.26,65a25,25,0,0,1-.39-4.48,80.38,80.38,0,0,0-8.6-30.75,66.85,66.85,0,0,0-10.36-14.53A73.66,73.66,0,0,0,1057,.61a7.6,7.6,0,0,1-.81-.59q19.08,0,38.17,0c.77,0,.93.15.93.93Q1095.24,33,1095.26,65Z"/><path class="cls-5" d="M1041.16,15.68a19,19,0,0,1-.87,5.13,30.69,30.69,0,0,0-.87,6.16,34.4,34.4,0,0,1-2.18,8.9c-1.89,5.5-4.08,10.88-6.29,16.26q-3.62,8.77-7.3,17.53c-2.22,5.26-4.5,10.49-6.9,15.67-1.91,4.12-3.89,8.21-5.89,12.28-1.34,2.74-2.79,5.43-4,8.22-1.09,2.42-1.74,5-3,7.35a28.58,28.58,0,0,1-8.49,9.76,31.52,31.52,0,0,1-6.08,3.4.91.91,0,0,1-.62-.22,51.7,51.7,0,0,0-17.29-8.9c-3.41-1-6.78-2-10.37-2a3.21,3.21,0,0,1-2-.47c1.11-.62,2.47-.83,3.28-2a11.65,11.65,0,0,0,4.92-5.28,27,27,0,0,0,3.13-16.55c-1-7.63,1.93-13.56,7.5-18.49a68.69,68.69,0,0,1,8.76-6.65,181,181,0,0,0,26.86-21.4c9.45-8.86,18.38-18.22,27-27.89C1040.62,16.2,1040.9,16,1041.16,15.68Z"/><path class="cls-3" d="M962.21,112.74c-.81,1.13-2.17,1.34-3.28,2a64.28,64.28,0,0,0-14.45,3.68c-1.33.23-2.66.48-4,.68a103.77,103.77,0,0,0-20.53,5,41.31,41.31,0,0,0-13.42,7.4c-2.68,2.34-5.3,4.74-7.95,7.11a12.69,12.69,0,0,0-1.87-4.53,2.1,2.1,0,0,1,.21-.51,60.35,60.35,0,0,1,9.27-8.66c2.31-1.83,5.12-2.73,7.6-4.21a35.79,35.79,0,0,1,9.86-3.57,95.72,95.72,0,0,1,17.6-2.35,69.94,69.94,0,0,1,9.27,0l.19-.06-.15-.13-1.38-.77c-4.25-2.31-8.39-4.82-12.82-6.81-9.2-4.12-18.57-5-28.12-1.5a65,65,0,0,0-27.75,18.86,51.82,51.82,0,0,0-10.21,18.31,35.9,35.9,0,0,1-3.15,7.12,24.22,24.22,0,0,0-2.15,3.68c-2.27,1.42-4.9,1.57-7.43,2,2-2.88,3.89-5.77,5.87-8.62a11.75,11.75,0,0,0,1.9-3.93,52.18,52.18,0,0,1,9.37-19.11c8.78-11.49,20.29-19.15,34-23.49,9.09-2.88,18.05-1.85,26.8,1.7,5.53,2.24,10.57,5.4,15.81,8.18a24.06,24.06,0,0,0,7.58,2.9C960.05,113.26,961.09,112.72,962.21,112.74Z"/><path class="cls-6" d="M896.71,134.05a12.69,12.69,0,0,1,1.87,4.53c-2,2-4.07,4-6.07,6.08-3,3.05-5.92,6.12-8.66,9.38l-1.47,1.48c-8.56,2.54-17.3,2.35-26.08,1.69a7.81,7.81,0,0,1,1.25-1.76c2.53-.47,5.16-.62,7.43-2A54.83,54.83,0,0,0,883.11,146c.4.09.8.19,1.21.27a6.8,6.8,0,0,0,8-4.9c.27-1.14-.14-2.25-.11-3.38.57,0,.85-.44,1.19-.76C894.51,136.16,895.6,135.1,896.71,134.05Z"/><path class="cls-7" d="M944.48,118.38a64.28,64.28,0,0,1,14.45-3.68,3.21,3.21,0,0,0,2,.47c3.59,0,7,1.07,10.37,2a51.7,51.7,0,0,1,17.29,8.9.91.91,0,0,0,.62.22c1.47,1.57,3.23,2.83,4.61,4.48,2.49,3,5.43,5.62,7.62,8.85a110.92,110.92,0,0,1,6.28,10,37.62,37.62,0,0,0,3.92,6.22c.36.51.73,1,1.08,1.53-.39.36,0,.61.15.86.82,1.66,1.69,3.29,2.49,5a134.33,134.33,0,0,1,12.81,48,118.54,118.54,0,0,1-.22,23,34.74,34.74,0,0,1-1.56,4.43c-3.11-3.14-6.24-6.27-9.56-9.2a173.69,173.69,0,0,0-29.47-20.89,148.84,148.84,0,0,1-33.93-25.8,239.48,239.48,0,0,1-16-19,62.37,62.37,0,0,0-5.26-6.1,23.37,23.37,0,0,0-10.06-6.13c0-1.09,0-2.19,0-3.28a53.89,53.89,0,0,1,1.15-7.36,58,58,0,0,1,7.24-11.61c3.75-4.7,8-8.8,13.88-10.72C944.6,118.52,944.75,118.46,944.48,118.38Z"/><path class="cls-8" d="M923.35,140.9a53.89,53.89,0,0,0-1.15,7.36c-.05,1.09,0,2.19,0,3.28-7-1.87-13.82-.71-20.47,1.83a122.42,122.42,0,0,0-21.58,11.22,2.07,2.07,0,0,1-.42.14,13.59,13.59,0,0,1,2.68-9.21l1.48-1.48a26.73,26.73,0,0,0,4.78-2,178.64,178.64,0,0,1,28.87-9.93C919.43,141.62,921.31,140.85,923.35,140.9Z"/><path class="cls-9" d="M988.68,213.78a65.1,65.1,0,0,1,22.73,15.38c-1.7.32-3.32-.14-4.94-.17a9.31,9.31,0,0,0-3.78.58,3.07,3.07,0,0,0-2,3.89,16.85,16.85,0,0,0,1.15,3.31,2,2,0,0,1-.6,2.71c-1,.69-1.67.64-2.64-.44A39.19,39.19,0,0,1,990.09,224,42.55,42.55,0,0,1,988.68,213.78Z"/><path class="cls-10" d="M1088.2,98.42a22.12,22.12,0,0,1-1.11,5.64,177.84,177.84,0,0,1-20.19,49.42,75.14,75.14,0,0,1-10.55,14.16c-2.1,2.13-4.36,3.28-7.49,2.61a42.35,42.35,0,0,1-9.1-2.57c8.28-2.08,14.53-7.24,20-13.4,8.93-9.95,15-21.65,20.2-33.82,3-6.92,5.44-14,7.74-21.17C1087.85,99,1087.87,98.61,1088.2,98.42Z"/><path class="cls-11" d="M1028,234.25a118.54,118.54,0,0,0,.22-23,134.33,134.33,0,0,0-12.81-48c-.8-1.67-1.67-3.3-2.49-5-.13-.25-.54-.5-.15-.86a79.72,79.72,0,0,1,22.88,28.51,122.51,122.51,0,0,1,9.86,30.18,179.94,179.94,0,0,1,3,24c.37,6,.43,11.94.34,17.91,0,1.61-.17,3.21-.26,5.06-1.12-2-2.08-3.74-3.11-5.48a119.58,119.58,0,0,0-16.87-22C1028.26,235.22,1027.88,234.86,1028,234.25Z"/><path class="cls-2" d="M883.11,146A54.83,54.83,0,0,1,865,153.41a24.22,24.22,0,0,1,2.15-3.68,35.9,35.9,0,0,0,3.15-7.12,51.82,51.82,0,0,1,10.21-18.31,65,65,0,0,1,27.75-18.86c9.55-3.51,18.92-2.62,28.12,1.5,4.43,2,8.57,4.5,12.82,6.81l1.38.77a1.06,1.06,0,0,1,0,.19,69.94,69.94,0,0,0-9.27,0,95.72,95.72,0,0,0-17.6,2.35,35.79,35.79,0,0,0-9.86,3.57c-2.48,1.48-5.29,2.38-7.6,4.21a60.35,60.35,0,0,0-9.27,8.66,2.1,2.1,0,0,0-.21.51c-1.11,1-2.2,2.11-3.33,3.14-.34.32-.62.78-1.19.76-.22-.52-.48-1-.67-1.55a4.94,4.94,0,0,0-3.49-3.25c-4.91-1.4-9.2,3.43-8.49,8A6.39,6.39,0,0,0,883.11,146Z"/><path class="cls-12" d="M923.35,140.9c-2-.05-3.92.72-5.84,1.2A178.64,178.64,0,0,0,888.64,152a26.73,26.73,0,0,1-4.78,2c2.73-3.26,5.68-6.33,8.65-9.38,2-2,4-4,6.07-6.08,2.65-2.37,5.27-4.77,7.95-7.11a41.31,41.31,0,0,1,13.42-7.4,103.77,103.77,0,0,1,20.53-5c1.34-.2,2.67-.45,4-.68.27.08.12.14,0,.19-5.91,1.92-10.13,6-13.88,10.72A58,58,0,0,0,923.35,140.9Z"/><path class="cls-13" d="M950.52,114.71a1.06,1.06,0,0,0,0-.19l.15.13Z"/><path class="cls-14" d="M883.11,146a6.39,6.39,0,0,1-3.57-4.77c-.71-4.61,3.58-9.44,8.49-8a5.38,5.38,0,0,1,3.62,3.31,7.61,7.61,0,0,1,.54,1.49,8.2,8.2,0,0,1,.11,3.38,6.8,6.8,0,0,1-8,4.9C883.91,146.15,883.51,146.05,883.11,146Z"/><path class="cls-4" d="M46.28,204a41.92,41.92,0,0,1-20.92,6.18C11.1,210.2,0,200.69,0,182.3V104.63H20.61v23.3H44.86V143H20.61v35.67c0,9.19,3.32,13.31,9,13.31,3.33,0,7.29-1.27,11.89-3.49Z"/><path class="cls-4" d="M143.14,124.45v84.8H122.53V195.78c-6,9.19-15.69,14.42-28.37,14.42-24.26,0-40.42-17.75-40.42-43.59,0-25.52,15.85-42.8,39.62-43,13-.16,23,5.07,29.17,14.42V124.45ZM122.53,170.1v-6c-1.27-13.63-10.62-22.82-23.94-22.82-14.1,0-23.93,10.78-24.09,25.84.16,15.21,9.83,25.83,24.09,25.83C111.91,192.92,121.26,183.73,122.53,170.1Z"/><path class="cls-4" d="M195.13,172.16l-13,13.63v23.46H161.52V91.64h20.61v68.15L217,124.61h23.78l-31.39,32.65,33.29,52H218.11Z"/><path class="cls-4" d="M327.28,174.06H264.66c2.7,12.05,11.89,19.34,24.26,19.34a31.49,31.49,0,0,0,22.82-9.51l11.1,11.57c-8.4,9.19-20.77,14.58-35.67,14.58-26.31,0-43.59-17.43-43.59-42.95,0-25.84,17.76-43.28,43.12-43.28C316.5,123.81,329.34,143.31,327.28,174.06Zm-18.71-13.79c-.47-12.52-8.88-20.45-21.71-20.45-12.21,0-20.77,7.93-22.67,20.45Z"/><path class="cls-4" d="M442.09,141.88C428.46,141.88,419,152,419,166.93c0,15.21,9.51,25.36,23.14,25.36,9.83,0,17.75-3.33,22.83-10l12.83,10.62C470.31,203.7,457.62,210,441,210c-25.36,0-42.8-17.43-42.8-42.95,0-25.84,17.6-43.28,43.12-43.28,15.53,0,27.9,5.71,35.5,15.54l-12.52,11.89C458.89,145.37,451.44,141.88,442.09,141.88Z"/><path class="cls-4" d="M574,124.45v84.8h-20.6V195.78c-6,9.19-15.7,14.42-28.38,14.42-24.25,0-40.42-17.75-40.42-43.59,0-25.52,15.86-42.8,39.63-43,13-.16,23,5.07,29.17,14.42V124.45Zm-20.6,45.65v-6c-1.27-13.63-10.62-22.82-23.94-22.82-14.11,0-23.93,10.78-24.09,25.84.16,15.21,9.83,25.83,24.09,25.83C542.75,192.92,552.1,183.73,553.37,170.1Z"/><path class="cls-4" d="M641,123.66v20c-17.92-1.11-28.85,9.35-28.85,24.72v40.9H591.57v-84.8h20.61v16.32C617.88,129.68,627.87,123.81,641,123.66Z"/><path class="cls-4" d="M730.06,174.06H667.44c2.7,12.05,11.89,19.34,24.26,19.34a31.49,31.49,0,0,0,22.82-9.51l11.1,11.57C717.22,204.65,704.85,210,690,210c-26.31,0-43.59-17.43-43.59-42.95,0-25.84,17.76-43.28,43.12-43.28C719.28,123.81,732.12,143.31,730.06,174.06Zm-18.71-13.79c-.47-12.52-8.87-20.45-21.71-20.45-12.21,0-20.77,7.93-22.67,20.45Z"/></g></g></svg>